<svg width="224" height="52" viewBox="0 0 224 52" fill="none" xmlns="http://www.w3.org/2000/svg">
<g clip-path="url(#clip0_268_669)">
<path d="M36.1748 0.944824V14.8816H50.1116L36.1748 0.944824Z" fill="#30407F"/>
<path d="M10.3998 22.8363L0.00195312 12.4385V51.0544H38.6179L28.2201 40.6566H10.3998V22.8363Z" fill="#FFCF5C"/>
<path d="M10.3994 2.07227V22.8679L28.2197 40.6882H49.0154L10.3994 2.07227Z" fill="#30407F"/>
<path d="M10.3994 40.6568H28.2197L10.3994 22.8364V40.6568Z" fill="#30407F"/>
</g>
<path d="M67.9389 35.0273V17.4889H74.9041C75.9732 17.4889 76.9252 17.706 77.7604 18.1403C78.6123 18.5579 79.2721 19.1592 79.7398 19.9443C80.2242 20.7126 80.4663 21.6396 80.4663 22.7254V23.0511C80.4663 24.1368 80.2158 25.0722 79.7147 25.8572C79.2303 26.6423 78.5705 27.2436 77.7354 27.6612C76.9002 28.0788 75.9565 28.2876 74.9041 28.2876H70.6448V35.0273H67.9389ZM70.6448 25.8322H74.6285C75.5806 25.8322 76.3406 25.5816 76.9085 25.0805C77.4765 24.5794 77.7604 23.8946 77.7604 23.026V22.7755C77.7604 21.8902 77.4765 21.197 76.9085 20.6959C76.3406 20.1948 75.5806 19.9443 74.6285 19.9443H70.6448V25.8322ZM83.1106 35.0273V17.4889H85.6913V24.4291H86.0922C86.2592 24.1117 86.493 23.8027 86.7937 23.5021C87.1111 23.2014 87.5203 22.9592 88.0214 22.7755C88.5392 22.575 89.1906 22.4748 89.9757 22.4748C90.9111 22.4748 91.7379 22.6836 92.4561 23.1012C93.1911 23.5188 93.7673 24.1117 94.1849 24.8801C94.6025 25.6317 94.8113 26.5421 94.8113 27.6111V35.0273H92.2306V27.8115C92.2306 26.7425 91.9634 25.9575 91.4289 25.4564C90.8944 24.9386 90.1594 24.6797 89.224 24.6797C88.155 24.6797 87.2948 25.0304 86.6434 25.732C86.0086 26.4335 85.6913 27.4524 85.6913 28.7887V35.0273H83.1106ZM102.359 35.3781C101.473 35.3781 100.68 35.2278 99.9785 34.9271C99.2936 34.6265 98.7424 34.1838 98.3248 33.5992C97.924 33.0146 97.7235 32.3047 97.7235 31.4695C97.7235 30.6177 97.924 29.9161 98.3248 29.3649C98.7424 28.797 99.302 28.3711 100.004 28.0871C100.722 27.8032 101.532 27.6612 102.434 27.6612H106.192V26.8594C106.192 26.1412 105.975 25.5649 105.541 25.1306C105.106 24.6964 104.438 24.4792 103.536 24.4792C102.651 24.4792 101.975 24.688 101.507 25.1056C101.039 25.5232 100.73 26.066 100.58 26.7342L98.1745 25.9575C98.375 25.2893 98.6923 24.688 99.1266 24.1535C99.5776 23.6023 100.171 23.1597 100.906 22.8256C101.64 22.4915 102.526 22.3245 103.561 22.3245C105.165 22.3245 106.426 22.7337 107.345 23.5522C108.263 24.3706 108.723 25.5315 108.723 27.0348V32.121C108.723 32.6221 108.956 32.8726 109.424 32.8726H110.476V35.0273H108.547C107.963 35.0273 107.487 34.877 107.119 34.5764C106.752 34.2757 106.568 33.8665 106.568 33.3487V33.2735H106.192C106.058 33.524 105.858 33.8164 105.591 34.1504C105.324 34.4845 104.931 34.7768 104.413 35.0273C103.895 35.2612 103.211 35.3781 102.359 35.3781ZM102.735 33.2484C103.77 33.2484 104.605 32.9561 105.24 32.3715C105.875 31.7702 106.192 30.9517 106.192 29.9161V29.6656H102.584C101.899 29.6656 101.348 29.8159 100.931 30.1166C100.513 30.4005 100.304 30.8265 100.304 31.3944C100.304 31.9623 100.521 32.4133 100.956 32.7473C101.39 33.0814 101.983 33.2484 102.735 33.2484ZM112.986 35.0273V22.6753H115.516V24.1284H115.917C116.118 23.6106 116.435 23.2348 116.869 23.001C117.32 22.7504 117.871 22.6251 118.523 22.6251H120.001V24.9553H118.423C117.587 24.9553 116.903 25.1891 116.368 25.6568C115.834 26.1078 115.566 26.8093 115.566 27.7614V35.0273H112.986ZM122.675 35.0273V22.6753H125.205V24.1284H125.606C125.84 23.6942 126.216 23.31 126.734 22.9759C127.252 22.6418 127.953 22.4748 128.838 22.4748C129.757 22.4748 130.492 22.6669 131.043 23.0511C131.611 23.4186 132.037 23.8946 132.321 24.4792H132.722C133.006 23.9113 133.415 23.4353 133.95 23.0511C134.501 22.6669 135.278 22.4748 136.28 22.4748C137.082 22.4748 137.791 22.6418 138.409 22.9759C139.027 23.2933 139.52 23.7777 139.888 24.4291C140.255 25.0638 140.439 25.8572 140.439 26.8093V35.0273H137.858V27.0098C137.858 26.2581 137.649 25.6818 137.232 25.281C136.831 24.8634 136.255 24.6546 135.503 24.6546C134.701 24.6546 134.058 24.9135 133.574 25.4313C133.089 25.9491 132.847 26.6924 132.847 27.6612V35.0273H130.267V27.0098C130.267 26.2581 130.058 25.6818 129.64 25.281C129.239 24.8634 128.663 24.6546 127.911 24.6546C127.11 24.6546 126.467 24.9135 125.982 25.4313C125.498 25.9491 125.256 26.6924 125.256 27.6612V35.0273H122.675ZM147.991 35.3781C147.106 35.3781 146.312 35.2278 145.611 34.9271C144.926 34.6265 144.375 34.1838 143.957 33.5992C143.556 33.0146 143.356 32.3047 143.356 31.4695C143.356 30.6177 143.556 29.9161 143.957 29.3649C144.375 28.797 144.934 28.3711 145.636 28.0871C146.354 27.8032 147.164 27.6612 148.066 27.6612H151.824V26.8594C151.824 26.1412 151.607 25.5649 151.173 25.1306C150.739 24.6964 150.071 24.4792 149.169 24.4792C148.283 24.4792 147.607 24.688 147.139 25.1056C146.671 25.5232 146.362 26.066 146.212 26.7342L143.807 25.9575C144.007 25.2893 144.325 24.688 144.759 24.1535C145.21 23.6023 145.803 23.1597 146.538 22.8256C147.273 22.4915 148.158 22.3245 149.194 22.3245C150.797 22.3245 152.058 22.7337 152.977 23.5522C153.896 24.3706 154.355 25.5315 154.355 27.0348V32.121C154.355 32.6221 154.589 32.8726 155.056 32.8726H156.109V35.0273H154.18C153.595 35.0273 153.119 34.877 152.751 34.5764C152.384 34.2757 152.2 33.8665 152.2 33.3487V33.2735H151.824C151.691 33.524 151.49 33.8164 151.223 34.1504C150.956 34.4845 150.563 34.7768 150.045 35.0273C149.528 35.2612 148.843 35.3781 147.991 35.3781ZM148.367 33.2484C149.402 33.2484 150.238 32.9561 150.872 32.3715C151.507 31.7702 151.824 30.9517 151.824 29.9161V29.6656H148.216C147.532 29.6656 146.98 29.8159 146.563 30.1166C146.145 30.4005 145.936 30.8265 145.936 31.3944C145.936 31.9623 146.154 32.4133 146.588 32.7473C147.022 33.0814 147.615 33.2484 148.367 33.2484ZM164.631 35.3781C163.378 35.3781 162.259 35.1109 161.274 34.5764C160.288 34.0251 159.512 33.2234 158.944 32.1711C158.376 31.1188 158.092 29.8326 158.092 28.3126V24.2036C158.092 21.9153 158.718 20.1698 159.971 18.9671C161.224 17.7478 162.919 17.1381 165.057 17.1381C167.162 17.1381 168.782 17.7144 169.918 18.8669C171.054 20.0027 171.622 21.5311 171.622 23.452V23.5772H168.941V23.3768C168.941 22.6586 168.799 22.0155 168.515 21.4476C168.231 20.8629 167.805 20.4036 167.237 20.0695C166.669 19.7355 165.942 19.5684 165.057 19.5684C163.721 19.5684 162.677 19.9777 161.925 20.7961C161.174 21.5979 160.798 22.717 160.798 24.1535V28.3627C160.798 29.7825 161.174 30.91 161.925 31.7451C162.677 32.5636 163.729 32.9728 165.082 32.9728C166.418 32.9728 167.396 32.6054 168.014 31.8704C168.632 31.1355 168.941 30.1834 168.941 29.0142V28.6884H164.23V26.3583H171.622V35.0273H169.116V33.2484H168.715C168.565 33.5658 168.339 33.8915 168.039 34.2256C167.755 34.5597 167.337 34.8353 166.786 35.0524C166.251 35.2695 165.533 35.3781 164.631 35.3781ZM175.183 35.0273V22.6753H177.713V24.1284H178.114C178.315 23.6106 178.632 23.2348 179.066 23.001C179.517 22.7504 180.068 22.6251 180.72 22.6251H182.198V24.9553H180.62C179.784 24.9553 179.1 25.1891 178.565 25.6568C178.031 26.1078 177.763 26.8093 177.763 27.7614V35.0273H175.183ZM190.219 35.3781C188.983 35.3781 187.881 35.1276 186.912 34.6265C185.96 34.1087 185.208 33.3737 184.657 32.4216C184.106 31.4695 183.83 30.3421 183.83 29.0392V28.6634C183.83 27.3605 184.106 26.2414 184.657 25.306C185.208 24.3539 185.96 23.619 186.912 23.1012C187.881 22.5834 188.983 22.3245 190.219 22.3245C191.455 22.3245 192.558 22.5834 193.526 23.1012C194.495 23.619 195.255 24.3539 195.806 25.306C196.358 26.2414 196.633 27.3605 196.633 28.6634V29.0392C196.633 30.3421 196.358 31.4695 195.806 32.4216C195.255 33.3737 194.495 34.1087 193.526 34.6265C192.558 35.1276 191.455 35.3781 190.219 35.3781ZM190.219 33.0731C191.355 33.0731 192.274 32.7139 192.975 31.9957C193.693 31.2607 194.053 30.2502 194.053 28.964V28.7386C194.053 27.4524 193.702 26.4502 193 25.732C192.299 24.997 191.372 24.6295 190.219 24.6295C189.1 24.6295 188.181 24.997 187.463 25.732C186.762 26.4502 186.411 27.4524 186.411 28.7386V28.964C186.411 30.2502 186.762 31.2607 187.463 31.9957C188.181 32.7139 189.1 33.0731 190.219 33.0731ZM201.052 35.0273L198.948 22.6753H201.528L203.082 33.2986H203.483L205.637 22.6753H209.822L211.951 33.2986H212.352L213.905 22.6753H216.486L214.382 35.0273H210.047L207.917 24.4291H207.516L205.387 35.0273H201.052Z" fill="#30407F"/>
<defs>
<clipPath id="clip0_268_669">
<rect width="50.1099" height="50.1099" fill="white" transform="translate(0 0.944824)"/>
</clipPath>
</defs>
</svg>
